# xmcd
# 
# Track frame offsets:
#     150
#     18982
#     37740
#     60062
#     86547
#     101332
#     118501
#     156194
#     180363
#     199492
#     214191
#     238080
#     256954
#     274075
#     286883
# 
# Disc length: 4474
# 
# Revision: 1
# Processed by: cddbd v1.5.2PL0 Copyright (c) Steve Scherf et al.
# Submitted via: fre:ac v1.0.17
# 
DISCID=c011780f
DTITLE=Dub Miller - Lost/Live
DYEAR=2015
DGENRE=Country
TTITLE0=Cowboys and Sailors
TTITLE1=Nine Miles North Of Mason
TTITLE2=Paint Me On Velvet
TTITLE3=Insanity and Texas
TTITLE4=The Dancer
TTITLE5=These Old Boots
TTITLE6=Train Song
TTITLE7=Payin' The Fiddler
TTITLE8=Honky Tonks and Dancehalls
TTITLE9=Miles and Memories
TTITLE10=It's Alright
TTITLE11=Hard Headed Woman
TTITLE12=Livin' On Lone Star Time
TTITLE13=Truck Drivin' Man
TTITLE14=Takin' It As It Comes
EXTD=
EXTT0=
EXTT1=
EXTT2=
EXTT3=
EXTT4=
EXTT5=
EXTT6=
EXTT7=
EXTT8=
EXTT9=
EXTT10=
EXTT11=
EXTT12=
EXTT13=
EXTT14=
PLAYORDER=
